<svg id="Layer_1" xmlns="http://www.w3.org/2000/svg" width="16" height="16"><style>.st0{fill:#ced0d9}</style><g transform="translate(5 2)"><path id="chevron-16-a_1_" class="st0" d="M.3 10.3c-.4.4-.4 1 0 1.4.4.4 1 .4 1.4 0l5-5c.4-.4.4-1 0-1.4l-5-5C1.3-.1.7-.1.3.3s-.4 1 0 1.4L4.6 6 .3 10.3z"/><defs><filter id="Adobe_OpacityMaskFilter" filterUnits="userSpaceOnUse" x="-5" y="-2" width="16" height="16"><feColorMatrix values="1 0 0 0 0 0 1 0 0 0 0 0 1 0 0 0 0 0 1 0"/></filter></defs><mask maskUnits="userSpaceOnUse" x="-5" y="-2" width="16" height="16" id="chevron-16-b_1_"><g filter="url(#Adobe_OpacityMaskFilter)"><path id="chevron-16-a_2_" d="M.3 10.3c-.4.4-.4 1 0 1.4.4.4 1 .4 1.4 0l5-5c.4-.4.4-1 0-1.4l-5-5C1.3-.1.7-.1.3.3s-.4 1 0 1.4L4.6 6 .3 10.3z" fill="#fff"/></g></mask><g mask="url(#chevron-16-b_1_)"><path class="st0" d="M-5-2h16v16H-5z"/></g></g></svg>