<svg xmlns="http://www.w3.org/2000/svg" width="75" height="53" viewBox="0 0 75 53">
  <g fill="none" fill-rule="evenodd">
    <path fill="#45D0EB" d="M70.5766342,4.47115759 C64.7447276,-1.36074903 55.2894747,-1.36074903 49.4576654,4.47115759 L37.4752724,16.4534533 L48.0348054,27.0129864 C53.8667121,32.844893 53.8667121,42.3001459 48.0348054,48.1319553 L70.5766342,25.5902237 C76.4084436,19.7583171 76.4084436,10.3030642 70.5766342,4.47115759"/>
    <path fill="#664277" d="M48.0347568,27.0129767 L37.4752237,16.4534436 L26.9156907,27.0129767 C21.083784,32.8448833 21.083784,42.3001362 26.9156907,48.1320428 C32.7475973,53.9639494 42.2029475,53.9639494 48.0347568,48.1320428 C53.8666634,42.3001362 53.8666634,32.8448833 48.0347568,27.0129767"/>
    <path fill="#FA476F" d="M26.9157393,27.0129767 L37.4752724,16.4534436 L25.4928794,4.47114786 C19.66107,-1.36075875 10.2058171,-1.36075875 4.37391051,4.47114786 C-1.45799611,10.3030545 -1.45799611,19.7583074 4.37391051,25.590214 L26.9157393,48.1320428 C21.0838327,42.3001362 21.0838327,32.8448833 26.9157393,27.0129767"/>
  </g>
</svg>
